<?xml version="1.0" standalone="no"?>
<!DOCTYPE svg PUBLIC "-//W3C//DTD SVG 20010904//EN"
 "http://www.w3.org/TR/2001/REC-SVG-20010904/DTD/svg10.dtd">
<svg version="1.0" xmlns="http://www.w3.org/2000/svg"
 width="318.000000pt" height="320.000000pt" viewBox="0 0 318.000000 320.000000"
 preserveAspectRatio="xMidYMid meet">

<g transform="translate(0.000000,320.000000) scale(0.100000,-0.100000)"
fill="#000000" stroke="none">
<path d="M1465 3194 c-322 -35 -614 -173 -836 -394 -127 -126 -186 -209 -264
-365 -146 -294 -182 -596 -109 -932 6 -29 4 -33 -15 -33 -34 0 -166 -29 -205
-45 l-34 -15 34 -112 c40 -133 40 -143 13 -254 -12 -46 -20 -87 -17 -89 2 -3
29 4 60 15 31 11 74 22 97 26 l40 6 3 -118 3 -118 47 -27 c202 -119 712 -224
1188 -244 486 -21 1210 104 1438 248 l42 27 0 115 c0 134 -8 128 116 91 43
-13 80 -20 82 -16 2 4 -6 44 -18 88 -26 105 -26 117 14 250 l34 112 -36 16
c-21 9 -79 23 -130 32 l-94 16 7 30 c53 246 46 479 -20 711 -32 112 -138 327
-207 420 -206 278 -520 475 -859 540 -85 16 -300 27 -374 19z m410 -43 c291
-65 543 -213 731 -428 35 -41 61 -79 58 -85 -4 -6 -3 -8 3 -5 24 15 166 -243
211 -383 71 -218 87 -488 41 -702 -14 -62 -26 -74 -88 -82 -27 -3 -59 -15 -72
-24 -20 -17 -22 -25 -20 -144 1 -91 -2 -128 -11 -135 -26 -21 -212 -71 -383
-103 -60 -12 -119 -23 -130 -26 -12 -3 0 14 33 44 28 27 52 52 52 56 0 12
-100 6 -213 -14 -149 -25 -279 -67 -399 -130 l-98 -50 -92 49 c-155 82 -334
132 -535 149 -106 9 -108 3 -28 -62 48 -40 55 -61 9 -31 -15 9 -23 11 -19 5 6
-10 1 -11 -19 -6 -15 4 -69 15 -119 26 -131 27 -282 67 -314 82 l-28 13 -3
131 c-3 155 -6 161 -100 170 -61 7 -62 7 -72 43 -36 137 -44 384 -17 543 47
275 173 523 371 726 81 83 162 146 177 136 7 -4 9 -3 6 3 -15 25 209 147 362
198 151 50 266 65 451 61 117 -3 191 -10 255 -25z m-1106 -2197 c31 -14 66
-34 78 -46 74 -69 -1 -203 -102 -184 -51 10 -149 52 -160 70 -10 16 -1 48 41
145 23 52 25 53 56 47 17 -3 57 -18 87 -32z m1839 -22 c2 -7 -12 -19 -33 -27
-45 -19 -50 -33 -31 -80 20 -47 20 -71 1 -79 -27 -10 -42 4 -69 71 -21 52 -24
68 -15 80 7 8 21 12 30 10 10 -3 24 2 31 10 25 31 77 40 86 15z m-178 -104 c6
-24 15 -58 20 -76 7 -27 5 -34 -11 -43 -15 -7 -24 -7 -33 0 -10 8 -17 7 -26
-4 -7 -8 -31 -20 -53 -26 -61 -16 -80 -3 -101 72 -17 60 -17 63 0 76 28 20 37
12 57 -50 15 -47 22 -57 41 -57 12 0 31 6 41 14 18 13 18 18 6 65 -14 57 -10
71 24 71 20 0 26 -7 35 -42z m-268 15 c42 -38 7 -104 -62 -117 -17 -3 -42 -8
-58 -11 -26 -5 -27 -8 -23 -51 l3 -45 -33 3 -34 3 -14 102 c-8 57 -12 105 -9
108 10 10 92 23 152 24 42 1 65 -4 78 -16z m-1106 -33 c54 -26 75 -70 53 -109
-22 -39 -56 -53 -114 -47 -56 6 -96 31 -109 68 -30 85 69 136 170 88z m430 6
c3 -7 2 -58 -3 -112 -8 -97 -9 -99 -33 -99 -25 0 -25 1 -28 99 -1 55 0 106 2
113 7 17 55 17 62 -1z m372 -13 c2 -13 13 -24 28 -27 31 -8 31 -24 -1 -32 -21
-5 -25 -12 -25 -43 0 -47 11 -62 41 -59 16 2 24 -2 24 -12 0 -19 -90 -27 -111
-9 -9 7 -14 31 -14 65 0 47 -2 54 -20 54 -23 0 -27 18 -5 26 8 4 15 16 15 28
0 30 9 38 40 34 17 -2 26 -10 28 -25z m-643 -73 c0 -65 8 -80 39 -80 32 0 43
17 53 75 8 44 11 50 33 50 30 0 36 -28 25 -112 -6 -47 -9 -53 -30 -53 -13 0
-26 4 -29 9 -3 4 -28 6 -56 3 -89 -8 -115 29 -94 137 6 27 11 32 33 29 24 -3
26 -6 26 -58z m516 23 c15 -15 29 -135 18 -148 -6 -6 -20 -5 -38 1 -18 7 -35
8 -45 2 -9 -5 -39 -8 -67 -6 -40 2 -55 8 -66 25 -13 19 -12 24 6 42 12 12 40
23 69 27 62 8 83 20 62 34 -19 13 -69 4 -92 -16 -14 -13 -21 -14 -32 -5 -20
17 -10 38 22 50 34 13 148 9 163 -6z"/>
<path d="M1467 3093 c-4 -3 -7 -29 -8 -57 -1 -45 -2 -47 -9 -22 -12 39 -37 64
-72 71 -63 14 -126 -43 -114 -103 3 -15 8 -45 11 -67 6 -39 6 -40 -12 -19 -10
12 -25 24 -33 27 -12 4 -12 6 3 12 16 7 16 10 -5 46 -12 22 -32 42 -45 45 -57
15 -123 -28 -123 -80 0 -33 33 -96 50 -96 7 0 8 -6 2 -16 -10 -18 8 -63 33
-84 35 -29 111 -6 139 41 17 28 19 29 35 15 10 -9 32 -16 50 -16 37 0 91 25
91 43 1 7 6 5 13 -5 11 -13 29 -16 93 -16 113 1 216 -10 259 -27 40 -17 52
-14 65 19 l9 21 0 -22 c1 -12 13 -34 28 -48 34 -30 96 -34 126 -7 19 16 20 16
8 -5 -19 -36 -13 -48 37 -73 46 -24 96 -35 86 -19 -2 5 1 17 8 29 10 15 10 24
1 38 -10 17 -8 18 13 14 14 -2 24 -1 23 4 -4 14 24 66 49 93 33 36 24 59 -33
92 -53 30 -75 35 -75 18 0 -12 -80 -149 -86 -149 -3 0 0 9 6 20 6 11 8 20 4
20 -4 0 1 9 11 20 9 10 20 40 22 64 5 42 3 48 -27 76 -36 34 -82 40 -116 15
-12 -8 -24 -11 -28 -7 -4 3 -4 -2 0 -12 6 -15 4 -17 -6 -11 -8 5 -11 4 -6 -3
6 -10 -23 -97 -30 -89 -2 2 5 39 16 82 15 60 17 80 8 86 -7 4 -44 15 -83 24
-84 19 -87 17 -105 -83 -18 -95 -21 -100 -50 -91 -24 7 -24 7 -2 8 17 1 22 7
24 29 2 42 5 66 7 72 8 17 10 48 6 68 -5 21 -10 23 -73 20 l-67 -3 -11 -110
c-6 -62 -12 -90 -13 -65 0 25 -4 75 -8 113 l-6 67 -42 0 c-23 0 -45 -3 -48 -7z
m77 -70 c3 -32 8 -88 11 -125 l7 -68 -35 0 -34 0 -7 92 c-11 156 -10 158 23
158 28 0 29 -2 35 -57z m176 32 c0 -20 -5 -25 -25 -25 -20 0 -25 -5 -25 -25 0
-19 5 -25 21 -25 30 0 22 -44 -8 -48 -35 -5 -32 -52 2 -52 25 0 31 -14 16 -38
-5 -9 -25 -12 -57 -10 -45 3 -49 5 -48 28 1 14 5 69 9 123 l7 97 54 0 c51 0
54 -1 54 -25z m-316 -7 c14 -13 27 -36 28 -53 3 -27 0 -30 -29 -33 -29 -3 -33
0 -33 22 0 22 -16 44 -25 35 -6 -8 29 -169 38 -169 5 0 7 14 5 32 -3 27 1 33
24 39 34 9 38 4 38 -42 0 -44 -27 -69 -75 -69 -53 0 -66 20 -86 135 -15 89 1
115 78 124 7 0 23 -9 37 -21z m427 12 c5 0 9 -15 9 -32 0 -54 16 -66 24 -18 5
32 10 41 22 36 9 -3 20 -6 25 -6 13 0 12 -14 -17 -136 l-25 -112 -27 7 c-24 6
-28 14 -32 57 l-6 49 -8 -42 c-6 -36 -12 -43 -31 -43 -13 0 -26 3 -29 8 -4 6
36 193 49 231 3 7 12 10 21 7 9 -3 20 -6 25 -6z m-627 -72 c21 -30 20 -33 -10
-47 -22 -10 -28 -9 -41 6 -13 17 -14 17 -11 -1 2 -13 18 -23 49 -32 52 -16 66
-28 79 -74 8 -27 6 -35 -15 -56 -32 -32 -88 -33 -109 -2 -22 31 -20 45 6 53
15 6 26 1 40 -16 l19 -24 -3 25 c-2 18 -11 27 -33 33 -77 23 -105 56 -92 109
12 47 94 65 121 26z m869 1 c12 -7 25 -17 29 -23 11 -16 10 -64 -2 -86 -9 -16
-15 -17 -40 -9 -26 9 -28 13 -19 35 11 31 12 44 1 44 -10 0 -66 -149 -59 -157
4 -3 12 6 18 21 13 27 33 33 59 16 12 -8 12 -13 -2 -43 -20 -42 -55 -51 -101
-28 -24 12 -33 24 -35 47 -3 34 39 146 66 177 17 20 54 22 85 6z m-603 -51 c0
-19 -2 -20 -10 -8 -13 19 -13 30 0 30 6 0 10 -10 10 -22z m803 -59 c5 -4 4
-16 -2 -28 -10 -17 -16 -19 -31 -11 -15 8 -21 6 -30 -9 -8 -16 -7 -22 6 -29
13 -7 14 -13 5 -31 -10 -17 -16 -19 -31 -11 -15 8 -21 6 -31 -12 -9 -17 -9
-24 5 -33 19 -14 20 -27 5 -42 -9 -9 -21 -7 -50 7 -21 11 -40 24 -44 29 -3 6
22 58 56 116 l61 105 37 -21 c20 -12 40 -25 44 -30z"/>
<path d="M858 2878 c-27 -16 -48 -35 -48 -41 0 -7 18 -39 40 -72 46 -69 52
-91 13 -44 -16 18 -26 38 -25 44 2 5 0 7 -3 3 -4 -4 -17 -1 -29 7 -40 29 -94
11 -122 -41 -10 -18 -21 -31 -25 -28 -4 2 1 -14 12 -35 10 -22 23 -42 28 -46
5 -3 24 -24 43 -48 30 -39 27 -37 -39 21 -39 34 -77 62 -85 62 -15 0 -58 -52
-58 -69 0 -5 14 -19 31 -32 35 -25 26 -49 -11 -29 -37 20 -67 4 -107 -55 -35
-54 -35 -56 -18 -75 10 -11 22 -20 26 -20 5 0 34 -16 65 -36 38 -24 54 -40 50
-51 -3 -8 -6 -17 -6 -19 0 -2 -4 -4 -9 -4 -5 0 -7 9 -4 20 4 15 -3 23 -31 37
-35 16 -37 16 -50 -2 -13 -18 -14 -18 -9 6 4 23 0 28 -27 38 -40 13 -43 12
-69 -44 -30 -64 -27 -73 27 -97 26 -11 65 -28 87 -38 116 -52 114 -51 129 -27
8 12 20 39 27 60 7 21 22 47 32 57 10 11 15 20 12 20 -7 0 47 81 92 136 18 23
33 44 33 48 0 4 -10 17 -22 27 l-23 20 23 -11 c17 -8 32 -8 57 0 43 14 65 44
65 90 1 29 2 32 11 18 5 -10 15 -18 21 -18 19 0 138 81 138 94 0 11 -56 94
-71 106 -3 3 -9 14 -13 25 -11 36 -55 75 -84 74 -15 0 -48 -14 -74 -31z m122
-20 c11 -18 18 -39 15 -45 -2 -7 2 -13 10 -13 12 0 75 -78 75 -93 0 -3 -11
-12 -24 -21 -24 -15 -25 -15 -53 29 -15 25 -31 45 -35 45 -13 0 -9 -10 22 -55
l30 -43 -25 -16 c-13 -9 -26 -16 -29 -16 -5 0 -136 198 -136 205 0 2 19 15 43
29 57 35 83 33 107 -6z m-137 -147 c85 -89 92 -127 32 -167 -38 -25 -67 -11
-129 60 -63 72 -70 103 -31 141 39 39 65 32 128 -34z m-139 -138 c121 -99 113
-89 91 -113 -10 -11 -22 -20 -26 -20 -5 0 -49 34 -99 76 l-90 75 18 24 c9 14
19 25 21 25 1 0 40 -30 85 -67z m-4 -112 c0 -3 -5 0 -12 7 -7 7 -18 12 -25 12
-16 0 -54 36 -46 44 6 5 83 -53 83 -63z m-110 44 c17 -9 30 -22 30 -30 0 -8 9
-15 21 -15 25 0 99 -41 99 -56 0 -5 -6 -18 -13 -28 -13 -18 -16 -17 -55 9 -22
15 -46 25 -53 23 -7 -2 9 -16 34 -31 50 -29 55 -41 32 -71 -13 -18 -17 -17
-77 21 -35 22 -82 52 -106 67 l-42 26 17 28 c26 42 55 72 70 72 8 0 27 -7 43
-15z m-128 -155 c6 0 8 -10 4 -24 -7 -30 22 -45 40 -21 17 23 54 4 47 -24 -7
-26 34 -39 50 -16 9 11 19 14 34 8 l22 -8 -21 -47 c-11 -27 -24 -48 -29 -48
-8 0 -210 87 -216 94 -2 1 5 24 14 50 12 31 22 45 31 41 8 -3 18 -5 24 -5z"/>
<path d="M910 2833 c0 -5 7 -18 15 -29 12 -16 14 -16 15 -3 0 9 -7 22 -15 29
-8 7 -15 8 -15 3z"/>
<path d="M740 2715 c0 -16 119 -142 120 -127 0 8 -27 42 -60 75 -33 34 -60 58
-60 52z"/>
<path d="M544 2445 c26 -19 42 -19 26 0 -7 8 -20 15 -29 15 -13 -1 -13 -3 3
-15z"/>
<path d="M2368 2780 c-14 -10 -28 -17 -32 -15 -3 3 -4 2 -2 -1 5 -6 -77 -85
-115 -112 -11 -7 -19 -20 -19 -29 0 -22 121 -135 137 -129 8 3 13 -3 13 -15 0
-27 35 -76 60 -84 11 -4 20 -14 20 -24 0 -9 4 -21 9 -27 15 -16 76 -137 96
-189 10 -27 28 -59 41 -71 15 -16 18 -24 9 -28 -10 -4 -10 -17 3 -68 8 -35 17
-112 19 -173 2 -60 8 -114 12 -118 5 -5 70 -5 145 -1 l137 7 -3 111 -3 111
-105 5 c-103 5 -105 5 -107 30 l-3 25 18 -22 c14 -19 22 -21 47 -15 19 6 31
16 35 33 l6 24 6 -23 c6 -21 11 -23 40 -17 18 4 37 11 41 15 5 4 3 35 -4 69
-15 70 -19 72 -124 46 -87 -21 -89 -18 -11 15 76 32 86 42 86 82 0 26 -26 104
-39 120 -8 9 -42 0 -121 -32 -30 -12 -50 -17 -45 -13 6 5 35 29 65 53 30 24
59 47 64 51 10 9 -45 109 -61 109 -6 0 -49 -16 -94 -35 -63 -27 -79 -31 -66
-17 9 10 14 22 10 26 -4 4 -1 4 8 1 9 -3 25 5 38 19 13 14 27 23 31 21 8 -5
11 13 13 68 1 28 -4 41 -21 53 -12 8 -20 19 -18 23 3 4 -15 8 -40 10 -45 2
-78 -14 -128 -65 -26 -25 -19 -10 29 63 25 37 45 73 45 79 0 12 -74 74 -88 74
-5 0 -21 -9 -34 -20z m73 -28 l32 -28 -67 -102 c-37 -56 -71 -102 -75 -102 -4
0 -16 9 -26 20 -15 16 -16 22 -5 35 18 21 6 29 -20 15 -19 -10 -26 -9 -43 9
l-22 21 55 48 c30 26 71 62 90 79 19 18 38 33 42 33 4 0 22 -13 39 -28z m139
-142 c36 -36 36 -68 1 -103 l-31 -32 -22 22 -22 23 24 25 c13 14 21 27 18 30
-7 7 -128 -93 -128 -106 0 -14 12 -11 35 11 l22 21 18 -27 c17 -27 17 -28 -5
-46 -49 -40 -120 -5 -120 58 0 28 10 41 66 88 72 62 109 71 144 36z m126 -190
l22 -39 -96 -73 c-53 -40 -99 -74 -103 -76 -3 -1 -11 10 -18 25 -11 23 -10 29
4 39 23 17 10 37 -15 24 -16 -9 -22 -6 -34 19 l-15 29 77 31 c42 17 91 38 107
46 44 20 48 19 71 -25z m91 -230 c-2 -34 -5 -36 -82 -67 -104 -43 -124 -41
-152 17 -12 25 -21 52 -20 60 1 8 48 32 112 56 l110 43 17 -37 c10 -20 17 -53
15 -72z m52 -146 c13 -52 14 -49 -15 -58 -17 -5 -23 -2 -27 15 -7 27 -41 22
-45 -8 -4 -28 -39 -37 -47 -12 -11 33 -59 17 -53 -17 2 -14 -4 -20 -23 -22
-25 -3 -27 1 -34 43 -3 26 -4 50 0 53 7 8 179 49 211 51 18 1 24 -8 33 -45z
m31 -174 c0 -37 -2 -39 -37 -45 -53 -9 -62 -13 -33 -14 58 -3 70 -11 70 -52 0
-38 -1 -39 -33 -39 -19 0 -75 -3 -125 -6 l-92 -7 0 32 0 31 68 1 c65 2 62 3
-25 15 -34 4 -43 9 -43 24 0 14 10 21 38 25 66 11 68 13 15 14 -52 1 -53 2
-53 31 l0 30 125 0 125 0 0 -40z"/>
<path d="M2347 2662 c-18 -20 -22 -32 -9 -32 10 1 45 50 34 50 -5 0 -16 -8
-25 -18z"/>
<path d="M2588 2364 c-16 -8 -28 -17 -28 -19 0 -11 27 -3 50 15 29 23 17 26
-22 4z"/>
<path d="M2668 2193 c-37 -14 -65 -29 -63 -34 3 -4 35 3 70 17 36 13 68 24 70
24 3 0 5 5 5 10 0 13 -4 12 -82 -17z"/>
<path d="M1388 2763 c7 -3 16 -2 19 1 4 3 -2 6 -13 5 -11 0 -14 -3 -6 -6z"/>
<path d="M1406 2745 c-317 -66 -586 -282 -705 -569 -60 -145 -74 -215 -75
-381 0 -126 3 -164 22 -234 29 -107 69 -202 120 -281 l39 -62 12 32 c6 18 11
41 11 51 0 24 -3 24 70 -10 92 -44 180 -56 299 -41 54 6 108 10 121 8 22 -3
22 -2 21 102 l-2 105 -121 121 c-143 143 -186 206 -198 294 -8 55 1 204 12
216 11 10 40 -38 53 -85 7 -28 25 -71 39 -94 23 -41 103 -127 117 -127 3 0 14
9 23 19 18 20 19 19 70 -13 28 -18 83 -52 122 -75 39 -22 84 -55 100 -72 l29
-30 5 -277 c4 -228 7 -273 18 -255 9 16 12 91 12 277 l0 255 33 34 c31 30 234
158 265 165 8 2 22 -4 33 -14 19 -17 21 -16 63 25 53 52 92 121 106 188 6 28
20 59 30 68 19 17 20 17 27 -1 5 -11 8 -68 8 -129 0 -156 -17 -189 -192 -363
l-133 -133 0 -98 0 -97 118 -13 c101 -11 127 -11 189 2 59 13 125 37 174 64 4
2 12 -18 19 -44 l12 -48 19 24 c66 81 132 246 155 391 56 344 -79 693 -354
912 -89 70 -249 151 -357 179 -104 28 -329 35 -429 14z m349 -145 c94 -35 175
-102 221 -183 10 -18 12 -17 28 8 14 22 15 32 7 57 -6 17 -11 32 -11 34 0 1
16 0 35 -3 29 -5 41 -1 60 17 l25 23 0 -35 c0 -30 6 -40 32 -56 l32 -20 -37
-16 c-29 -11 -37 -21 -37 -40 0 -36 -15 -40 -37 -10 -16 22 -25 25 -50 20
l-30 -7 18 -52 c23 -65 25 -195 4 -255 -29 -83 -65 -144 -78 -133 -9 7 -13 5
-13 -9 0 -10 5 -16 11 -13 5 3 -3 -7 -19 -22 -25 -25 -30 -26 -38 -12 -5 10
-14 17 -19 17 -6 0 -3 -7 6 -16 15 -15 15 -18 -2 -36 -40 -45 -176 -92 -264
-91 -72 0 -163 28 -152 47 4 6 0 6 -9 -1 -12 -11 -19 -10 -36 6 -12 10 -19 21
-16 24 3 3 -2 3 -13 1 -26 -7 -115 89 -153 164 -146 294 70 632 395 617 51 -2
102 -11 140 -25z m-649 -86 c33 7 36 6 29 -11 -16 -40 -17 -54 -1 -78 22 -34
21 -37 -18 -30 -29 6 -37 3 -51 -19 -21 -32 -35 -33 -35 -3 0 31 -11 44 -45
57 l-29 11 32 21 c26 16 32 26 32 56 l0 35 24 -22 c21 -19 31 -22 62 -17z
m-169 -249 c37 7 37 7 23 -30 -7 -19 -6 -34 5 -55 20 -38 20 -37 -18 -32 -27
3 -37 -1 -51 -22 -19 -31 -36 -26 -36 10 0 18 -9 29 -35 41 l-35 17 30 19 c24
15 30 26 30 54 l0 34 27 -21 c21 -16 35 -20 60 -15z m1353 1 c0 -27 6 -38 30
-53 l30 -19 -33 -16 c-25 -12 -36 -25 -41 -50 l-7 -33 -23 29 c-19 23 -30 28
-55 24 -36 -5 -36 -6 -16 33 12 21 13 34 5 48 -18 34 -12 42 23 36 24 -5 37
-2 52 14 28 28 35 26 35 -13z m-1462 -250 c32 6 34 5 27 -12 -16 -41 -17 -55
-1 -79 21 -32 21 -32 -18 -27 -26 3 -37 -1 -53 -22 -26 -32 -33 -33 -33 -3 0
29 -9 41 -44 59 l-29 15 32 19 c25 15 31 25 31 52 l0 33 27 -20 c20 -17 34
-20 61 -15z m1605 -53 l32 -16 -33 -15 c-20 -10 -35 -26 -39 -41 -9 -41 -13
-43 -35 -15 -17 21 -28 25 -54 22 -39 -5 -40 -1 -18 30 15 22 15 35 -1 76 -7
17 -5 18 26 13 25 -5 40 -2 59 13 l25 19 3 -35 c3 -27 10 -38 35 -51z m-1618
-197 l37 7 -15 -30 c-15 -27 -14 -32 3 -61 l20 -32 -36 0 c-26 0 -41 -7 -58
-27 l-23 -27 -7 36 c-5 28 -14 39 -38 49 l-31 13 27 21 c15 12 29 34 31 51 2
16 4 31 4 33 1 3 12 -6 25 -18 19 -18 30 -21 61 -15z m1597 1 c3 -16 17 -38
33 -51 l28 -22 -31 -13 c-24 -10 -33 -21 -38 -49 l-7 -36 -23 27 c-17 20 -32
27 -58 27 l-35 0 17 29 c14 25 15 35 5 62 l-12 31 34 -5 c25 -4 41 0 57 13 27
22 26 22 30 -13z m-1516 -250 l36 6 -15 -30 c-15 -27 -14 -32 3 -61 l20 -32
-37 0 c-28 0 -42 -6 -59 -27 l-21 -27 -7 38 c-6 30 -13 40 -37 48 -36 12 -37
21 -4 36 14 7 25 20 25 31 0 11 3 26 6 35 5 14 9 14 30 -3 19 -15 34 -18 60
-14z m1438 -10 c4 -16 17 -32 31 -39 33 -15 31 -24 -4 -36 -24 -8 -31 -18 -37
-48 l-7 -38 -23 27 c-17 20 -32 27 -59 27 l-36 0 18 30 c15 25 15 35 6 61
l-12 31 32 -5 c23 -3 40 1 58 13 13 11 25 16 26 12 1 -4 4 -20 7 -35z"/>
<path d="M1346 1867 c3 -10 9 -15 12 -12 3 3 0 11 -7 18 -10 9 -11 8 -5 -6z"/>
<path d="M1700 1799 c0 -5 5 -7 10 -4 6 3 10 8 10 11 0 2 -4 4 -10 4 -5 0 -10
-5 -10 -11z"/>
<path d="M2220 2557 c0 -2 15 -16 33 -33 l32 -29 -29 33 c-28 30 -36 37 -36
29z"/>
<path d="M354 2195 c-23 -23 -48 -94 -42 -123 2 -10 29 -23 83 -38 85 -24 70
-30 -30 -14 -33 5 -63 6 -68 1 -8 -8 -20 -88 -21 -146 l-1 -30 78 -9 c42 -5
77 -13 77 -18 0 -4 -4 -8 -9 -8 -5 0 -17 -7 -25 -16 -15 -14 -16 -14 -16 0 0
9 -8 16 -17 17 -10 0 -30 2 -45 3 -15 1 -25 0 -22 -3 2 -2 -4 -13 -13 -24 -25
-27 -24 -98 1 -126 22 -24 103 -30 124 -9 9 9 15 9 24 0 21 -21 77 -14 103 13
32 31 34 91 4 129 l-21 26 22 18 c16 13 24 33 27 69 5 45 3 52 -22 71 -29 23
-27 29 5 12 23 -13 36 3 44 55 l7 41 -45 12 c-42 11 -46 15 -46 42 0 35 -25
54 -89 69 -39 8 -46 7 -67 -14z m121 -25 c8 -7 15 -27 15 -44 0 -29 4 -33 46
-44 43 -12 46 -14 39 -40 -4 -15 -8 -28 -10 -30 -2 -2 -56 11 -120 29 l-117
32 7 36 c4 20 13 47 22 60 13 20 21 23 59 18 24 -2 51 -10 59 -17z m37 -190
c18 -1 38 -35 38 -63 0 -44 -25 -77 -57 -77 -15 0 -66 5 -115 11 -80 11 -88
14 -88 33 0 42 9 45 110 30 115 -16 112 -16 106 -5 -3 5 -51 14 -106 21 -85
10 -100 15 -100 30 0 46 4 47 108 34 53 -8 100 -13 104 -14z m-152 -214 c0
-24 -5 -36 -17 -39 -14 -4 -13 -5 4 -6 14 -1 28 10 42 33 25 39 38 46 91 46
45 0 60 -18 60 -71 0 -41 -25 -69 -62 -69 -24 0 -28 4 -28 30 0 25 4 30 25 30
14 0 25 5 25 10 0 6 -11 10 -24 10 -16 0 -31 -12 -49 -39 -29 -43 -67 -57
-107 -38 -54 26 -48 121 8 130 15 2 28 5 30 6 1 0 2 -14 2 -33z"/>
<path d="M390 2131 c0 -5 10 -11 23 -15 36 -9 43 -6 23 9 -22 17 -46 20 -46 6z"/>
<path d="M2790 1668 c-25 -5 -73 -7 -107 -4 -70 6 -83 -4 -83 -62 0 -25 5 -30
31 -36 17 -3 42 -6 54 -6 12 0 57 -16 100 -35 42 -19 80 -33 85 -30 10 6 33
162 25 175 -7 12 -43 11 -105 -2z m90 -15 c-1 -38 -14 -53 -49 -54 l-36 -1 35
-12 c28 -11 34 -18 32 -37 -1 -12 -4 -25 -7 -27 -3 -3 -37 9 -77 26 -40 17
-92 34 -116 37 -39 6 -43 9 -40 33 3 26 4 27 68 25 36 -2 83 1 105 6 53 11 85
13 85 4z"/>
<path d="M880 1096 c0 -2 8 -10 18 -17 15 -13 16 -12 3 4 -13 16 -21 21 -21
13z"/>
<path d="M693 923 c-3 -10 -14 -40 -25 -66 -10 -26 -18 -50 -18 -52 0 -8 71
-35 92 -35 29 0 68 45 68 78 0 33 -20 55 -73 77 -35 14 -38 14 -44 -2z"/>
<path d="M2002 788 c3 -32 5 -33 43 -31 44 3 71 23 62 47 -5 12 -20 16 -57 16
l-51 0 3 -32z"/>
<path d="M950 771 c-14 -27 -13 -47 6 -65 23 -24 70 -20 88 6 20 29 20 34 -4
58 -26 26 -76 26 -90 1z"/>
<path d="M1632 670 c-39 -9 -46 -15 -37 -29 15 -25 85 -9 85 20 0 21 0 21 -48
9z"/>
</g>
</svg>
